<?xml version="1.0" encoding="utf-8"?>
<!-- Generator: Adobe Illustrator 18.1.1, SVG Export Plug-In . SVG Version: 6.00 Build 0)  -->
<!DOCTYPE svg PUBLIC "-//W3C//DTD SVG 1.1//EN" "http://www.w3.org/Graphics/SVG/1.1/DTD/svg11.dtd">
<svg version="1.1" id="Layer_1" xmlns="http://www.w3.org/2000/svg" xmlns:xlink="http://www.w3.org/1999/xlink" x="0px" y="0px"
	 viewBox="0 0 455.9 100.8" style="enable-background:new 0 0 455.9 100.8;" xml:space="preserve">
<style type="text/css">
	.st0{fill:#333333;}
	.st1{fill:#FDBB41;}
</style>
<path class="st0" d="M129.7,61.6c3.5,3,8.1,5.1,12.1,5.1c4.6,0,6.9-1.8,6.9-4.7c0-3.1-2.8-4.1-7.1-5.9l-6.4-2.7
	c-5-2-9.9-6.2-9.9-13.4c0-8.1,7.2-14.6,17.5-14.6c5.6,0,11.6,2.3,15.8,6.5l-5.6,7c-3.2-2.5-6.2-3.9-10.2-3.9c-3.8,0-6.2,1.7-6.2,4.4
	c0,3,3.2,4.1,7.5,5.8l6.3,2.6c5.9,2.4,9.7,6.4,9.7,13.3c0,8.1-6.8,15.2-18.5,15.2c-6.4,0-13.2-2.4-18.1-7.1L129.7,61.6z"/>
<path class="st0" d="M175.6,26.3h11.1v27.5c0,9.6,3,12.9,8.5,12.9c5.5,0,8.7-3.3,8.7-12.9V26.3h10.7v26.3c0,16.5-6.7,23.6-19.3,23.6
	c-12.7,0-19.6-7.1-19.6-23.6V26.3z"/>
<path class="st0" d="M233.4,26.3h11.4l12.8,24.4l4.8,10.8h0.3c-0.5-5.2-1.4-12.1-1.4-17.9V26.3h10.5v49.1h-11.4l-12.8-24.5
	l-4.8-10.7h-0.3c0.5,5.4,1.4,12,1.4,17.8v17.4h-10.5V26.3z"/>
<path class="st0" d="M317.6,75.4l-9.4-17.7h-6.1v17.7H291V26.3h17.7c10.4,0,18.9,3.6,18.9,15.3c0,7.2-3.5,11.8-8.7,14.1L330,75.4
	H317.6z M302.1,48.9h5.7c5.8,0,9-2.5,9-7.3s-3.2-6.5-9-6.5h-5.7V48.9z"/>
<path class="st0" d="M344.9,26.3h11.1v49.1h-11.1V26.3z"/>
<path class="st0" d="M378.2,61.6c3.5,3,8.1,5.1,12.1,5.1c4.6,0,6.9-1.8,6.9-4.7c0-3.1-2.8-4.1-7.1-5.9l-6.4-2.7
	c-5-2-9.9-6.2-9.9-13.4c0-8.1,7.2-14.6,17.5-14.6c5.6,0,11.6,2.3,15.8,6.5l-5.6,7c-3.2-2.5-6.2-3.9-10.2-3.9c-3.8,0-6.2,1.7-6.2,4.4
	c0,3,3.2,4.1,7.5,5.8l6.3,2.6c5.9,2.4,9.7,6.4,9.7,13.3c0,8.1-6.8,15.2-18.5,15.2c-6.4,0-13.2-2.4-18.1-7.1L378.2,61.6z"/>
<path class="st0" d="M424.4,26.3h30.7v9.3h-19.6v9.9h16.7v9.3h-16.7V66h20.4v9.3h-31.5V26.3z"/>
<path class="st1" d="M50.4,83.8c-18.5,0-33.6-15.1-33.6-33.6c0-18.5,15.1-33.6,33.6-33.6S84,31.7,84,50.2
	C84,68.7,68.9,83.8,50.4,83.8z M50.4,20.8C34.2,20.8,21,34,21,50.2c0,16.2,13.2,29.4,29.4,29.4s29.4-13.2,29.4-29.4
	C79.8,34,66.6,20.8,50.4,20.8z"/>
<rect x="48.3" y="0" class="st1" width="4.2" height="13"/>
<rect x="48.3" y="87.8" class="st1" width="4.2" height="13"/>
<rect x="87.8" y="48.3" class="st1" width="13" height="4.2"/>
<rect x="0" y="48.3" class="st1" width="13" height="4.2"/>
<rect x="79.3" y="12.9" transform="matrix(0.7071 0.7071 -0.7071 0.7071 37.5294 -51.9083)" class="st1" width="4.2" height="13"/>
<rect x="17.3" y="74.9" transform="matrix(0.7071 0.7071 -0.7071 0.7071 63.2427 10.1678)" class="st1" width="4.2" height="13"/>
<rect x="12.9" y="17.3" transform="matrix(0.7071 0.7071 -0.7071 0.7071 19.3478 -8.0141)" class="st1" width="13" height="4.2"/>
<rect x="74.9" y="79.3" transform="matrix(0.7072 0.707 -0.707 0.7072 81.4115 -33.7265)" class="st1" width="13" height="4.2"/>
</svg>
