<svg id="Layer_1" xmlns="http://www.w3.org/2000/svg" viewBox="0 0 455.9 100.8"><style>.st0{fill:#333}.st1{fill:#fdbb41}</style><path class="st0" d="M129.7 61.6c3.5 3 8.1 5.1 12.1 5.1 4.6 0 6.9-1.8 6.9-4.7 0-3.1-2.8-4.1-7.1-5.9l-6.4-2.7c-5-2-9.9-6.2-9.9-13.4 0-8.1 7.2-14.6 17.5-14.6 5.6 0 11.6 2.3 15.8 6.5l-5.6 7c-3.2-2.5-6.2-3.9-10.2-3.9-3.8 0-6.2 1.7-6.2 4.4 0 3 3.2 4.1 7.5 5.8l6.3 2.6c5.9 2.4 9.7 6.4 9.7 13.3 0 8.1-6.8 15.2-18.5 15.2-6.4 0-13.2-2.4-18.1-7.1l6.2-7.6zM175.6 26.3h11.1v27.5c0 9.6 3 12.9 8.5 12.9s8.7-3.3 8.7-12.9V26.3h10.7v26.3c0 16.5-6.7 23.6-19.3 23.6-12.7 0-19.6-7.1-19.6-23.6V26.3zM233.4 26.3h11.4l12.8 24.4 4.8 10.8h.3c-.5-5.2-1.4-12.1-1.4-17.9V26.3h10.5v49.1h-11.4l-12.8-24.5-4.8-10.7h-.3c.5 5.4 1.4 12 1.4 17.8v17.4h-10.5V26.3zM317.6 75.4l-9.4-17.7h-6.1v17.7H291V26.3h17.7c10.4 0 18.9 3.6 18.9 15.3 0 7.2-3.5 11.8-8.7 14.1L330 75.4h-12.4zm-15.5-26.5h5.7c5.8 0 9-2.5 9-7.3s-3.2-6.5-9-6.5h-5.7v13.8zM344.9 26.3H356v49.1h-11.1V26.3zM378.2 61.6c3.5 3 8.1 5.1 12.1 5.1 4.6 0 6.9-1.8 6.9-4.7 0-3.1-2.8-4.1-7.1-5.9l-6.4-2.7c-5-2-9.9-6.2-9.9-13.4 0-8.1 7.2-14.6 17.5-14.6 5.6 0 11.6 2.3 15.8 6.5l-5.6 7c-3.2-2.5-6.2-3.9-10.2-3.9-3.8 0-6.2 1.7-6.2 4.4 0 3 3.2 4.1 7.5 5.8l6.3 2.6c5.9 2.4 9.7 6.4 9.7 13.3 0 8.1-6.8 15.2-18.5 15.2-6.4 0-13.2-2.4-18.1-7.1l6.2-7.6zM424.4 26.3h30.7v9.3h-19.6v9.9h16.7v9.3h-16.7V66h20.4v9.3h-31.5v-49z"/><path class="st1" d="M50.4 83.8c-18.5 0-33.6-15.1-33.6-33.6s15.1-33.6 33.6-33.6S84 31.7 84 50.2 68.9 83.8 50.4 83.8zm0-63C34.2 20.8 21 34 21 50.2s13.2 29.4 29.4 29.4 29.4-13.2 29.4-29.4-13.2-29.4-29.4-29.4zM48.3 0h4.2v13h-4.2zM48.3 87.8h4.2v13h-4.2zM87.8 48.3h13v4.2h-13zM0 48.3h13v4.2H0z"/><path transform="rotate(45.001 81.424 19.347)" class="st1" d="M79.3 12.9h4.2v13h-4.2z"/><path transform="rotate(45.001 19.349 81.425)" class="st1" d="M17.3 74.9h4.2v13h-4.2z"/><path transform="rotate(45.001 19.348 19.348)" class="st1" d="M12.9 17.3h13v4.2h-13z"/><path transform="rotate(44.992 81.427 81.428)" class="st1" d="M74.9 79.3h13v4.2h-13z"/></svg>